[Header]
FileType HTR
DataType HTRS
FileVersion 1
NumSegments 22
NumFrames 5
DataFrameRate 24
EulerRotationOrder ZYX
CalibrationUnits mm
RotationUnits Degrees
GlobalAxisofGravity Y
BoneLengthAxis Y
ScaleFactor 1.0
[SegmentNames&Hierarchy]
reference	GLOBAL
Hips	reference
Spine	Hips
Spine1	Spine
Neck	Spine1
Head	Neck
LeftShoulder	Spine1
LeftArm	LeftShoulder
LeftForeArm	LeftArm
LeftHand	LeftForeArm
RightShoulder	Spine1
RightArm	RightShoulder
RightForeArm	RightArm
RightHand	RightForeArm
LeftUpLeg	Hips
LeftLeg	LeftUpLeg
LeftFoot	LeftLeg
LeftToeBase	LeftFoot
RightUpLeg	Hips
RightLeg	RightUpLeg
RightFoot	RightLeg
RightToeBase	RightFoot
[BasePosition]
reference	0	0	0	0	0	0	1
Hips	0	0	0	0	0	0	1
Spine	0	0	0	0	-0	90	1
Spine1	0	0	0	0	0	0	1
Neck	0	0	0	-7.352430803	-7.352430803	90	1
Head	0	0	0	0	-0	90	1
LeftShoulder	0	0	0	0	0	0	1
LeftArm	0	0	0	0	0	0	1
LeftForeArm	0	0	0	0	0	0	1
LeftHand	0	0	0	0	0	0	1
RightShoulder	0	0	0	0	-0	180	1
RightArm	0	0	0	0	-0	180	1
RightForeArm	0	0	0	0	-0	180	1
RightHand	0	0	0	0	-0	180	1
LeftUpLeg	0	0	0	0	-0	-90	1
LeftLeg	0	0	0	0	-0	-90	1
LeftFoot	0	0	0	66.57150701	-66.57150701	-90	1
LeftToeBase	0	0	0	0	-90	0	1
RightUpLeg	0	0	0	0	-0	-90	1
RightLeg	0	0	0	0	-0	-90	1
RightFoot	0	0	0	66.57150701	-66.57150701	-90	1
RightToeBase	0	0	0	0	-90	0	1
[reference]
10	0	0	0	0	-0	0	1.0
11	0	0	0	0	-0	0	1.0
12	0	0	0	0	-0	0	1.0
13	0	0	0	0	-0	0	1.0
14	0	0	0	0	-0	0	1.0
[Hips]
10	0.4518299997	8.778429985	0.1176699996	-1.061480522	-102.8885269	4.046804428	1.0
11	0.4518299997	8.778429985	0.1176699996	-1.187494993	-102.4898529	4.081201553	1.0
12	0.4518299997	8.778429985	0.1176699996	-1.178374887	-102.036026	4.05635643	1.0
13	0.4518299997	8.778429985	0.1320613921	-1.268463135	-101.4580078	4.129333496	1.0
14	0.4518299997	8.778429985	0.157105118	-1.560421348	-100.782196	4.453447819	1.0
[Spine]
10	0	0.7478299737	0	-15.0576334	-0.04291092232	-90.15032959	1.0
11	0	0.7478299737	0	-14.98437595	-0.02106098458	-90.10777283	1.0
12	0	0.7478299737	0	-14.95744896	-0.01035100315	-90.08818054	1.0
13	0	0.7478299737	0	-14.91927433	-0.04691432416	-90.03269958	1.0
14	0	0.7478299737	0	-14.8105154	-0.08289812505	-89.96179962	1.0
[Spine1]
10	0	2.049309969	0	13.45331955	0.02529780008	-0.2659268677	1.0
11	0	2.049309969	0	13.48106766	0.03066624701	-0.3539975286	1.0
12	0	2.049309969	0	13.40115356	0.04196244478	-0.4538534284	1.0
13	0	2.049309969	0	13.41440678	0.03996507451	-0.4838333428	1.0
14	0	2.049309969	0	13.23472881	0.01556179207	-0.4035764039	1.0
[Neck]
10	0	2.231709957	0	-7.119571686	0.1450968981	-88.06069946	1.0
11	0	2.231709957	0	-7.142859459	0.259200424	-88.07791138	1.0
12	0	2.231709957	0	-7.142833233	0.7274959683	-88.13672638	1.0
13	0	2.231709957	0	-7.142430305	0.4036237597	-88.09607697	1.0
14	0	2.231709957	0	-7.142426968	0.4054923356	-88.09635925	1.0
[Head]
10	0	1.413589954	0.1823999882	-2.362594604	-0.0127265146	-90.21108246	1.0
11	0	1.413589954	0.1823999882	-2.251843452	0.03812630475	-90.1587677	1.0
12	0	1.413589954	0.1823999882	-2.018380642	0.03708744794	-90.1295166	1.0
13	0	1.413589954	0.1823999882	-2.18309617	-0.05776004866	-90.15180206	1.0
14	0	1.413589954	0.1823999882	-2.293632984	0.03448040783	-90.41695404	1.0
[LeftShoulder]
10	0.3649300039	1.825889945	-0.04271000251	-12.45104408	-6.798096657	1.446071386	1.0
11	0.3649300039	1.825889945	-0.04271000251	-12.18160057	-6.916400433	1.440100193	1.0
12	0.3649300039	1.825889945	-0.04271000251	-12.14912224	-6.868426323	1.353315592	1.0
13	0.3649300039	1.825889945	-0.04271000251	-12.25739288	-6.875498772	1.448421836	1.0
14	0.3649300039	1.825889945	-0.04271000251	-12.12532234	-6.907443523	1.213011146	1.0
[LeftArm]
10	1.24003005	0	0	40.27486801	8.52973175	-79.73400879	1.0
11	1.24003005	0	0	40.17255402	8.255984306	-79.72764587	1.0
12	1.24003005	0	0	40.39875031	8.238593102	-79.72467041	1.0
13	1.24003005	0	0	40.50249481	8.275964737	-79.93094635	1.0
14	1.24003005	0	0	40.75162125	8.173129082	-79.88630676	1.0
[LeftForeArm]
10	2.847419977	0	0	-10.9331913	-11.93936062	-3.948713779	1.0
11	2.847419977	0	0	-10.95997047	-12.08264542	-3.914353371	1.0
12	2.847419977	0	0	-11.0040369	-12.18220425	-3.784260511	1.0
13	2.847419977	0	0	-11.02697563	-12.3082037	-3.753548384	1.0
14	2.847419977	0	0	-11.22404957	-12.45836639	-3.595062733	1.0
[LeftHand]
10	2.258270025	0	0	-11.2148037	-4.675823689	-3.223566055	1.0
11	2.258270025	0	0	-11.23991108	-4.951714039	-3.113424063	1.0
12	2.258270025	0	0	-11.26399612	-4.997728825	-3.302956343	1.0
13	2.258270025	0	0	-11.29370594	-4.975395679	-3.182781696	1.0
14	2.258270025	0	0	-11.4702425	-5.127671242	-3.271249771	1.0
[RightShoulder]
10	-0.3646599948	1.825889945	-0.04271000251	-7.776446342	6.768758297	-179.768158	1.0
11	-0.3646599948	1.825889945	-0.04271000251	-7.661483288	6.79681015	-179.742691	1.0
12	-0.3646599948	1.825889945	-0.04271000251	-7.631591797	6.796700954	-179.7128448	1.0
13	-0.3646599948	1.825889945	-0.04271000251	-7.711785793	6.754938602	-179.7210693	1.0
14	-0.3646599948	1.825889945	-0.04271000251	-7.710466862	6.903941154	-179.7956696	1.0
[RightArm]
10	-1.24003005	0	0	49.29808044	-4.29634285	-98.99964905	1.0
11	-1.24003005	0	0	49.25271988	-4.232275009	-99.01789856	1.0
12	-1.24003005	0	0	49.19160461	-4.258693695	-99.06119537	1.0
13	-1.24003005	0	0	48.99631882	-4.336972237	-99.09497833	1.0
14	-1.24003005	0	0	48.56486511	-4.439391136	-99.11962891	1.0
[RightForeArm]
10	-2.847419977	0	0	-0.9136517048	12.53976631	177.4064941	1.0
11	-2.847419977	0	0	-0.8943938017	12.55669022	177.3736115	1.0
12	-2.847419977	0	0	-0.8737374544	12.52447987	177.447525	1.0
13	-2.847419977	0	0	-0.7528151274	12.4881916	177.5316315	1.0
14	-2.847419977	0	0	-0.685951829	12.52394867	177.6152191	1.0
[RightHand]
10	-2.258270025	0	0	-0.8743802905	6.384307384	175.5978088	1.0
11	-2.258270025	0	0	-0.851629734	6.363004208	175.5739441	1.0
12	-2.258270025	0	0	-0.8475698233	6.397511482	175.4599457	1.0
13	-2.258270025	0	0	-0.7249373794	6.323144913	175.6203003	1.0
14	-2.258270025	0	0	-0.6730209589	6.344958782	175.517395	1.0
[LeftUpLeg]
10	0.9119900465	0	0	2.916678905	-1.403696895	90.31806183	1.0
11	0.9119900465	0	0	2.703953266	-1.354742169	90.2819519	1.0
12	0.9119900465	0	0	2.423487425	-1.570075035	90.19418335	1.0
13	0.9119900465	0	0	1.993988395	-2.145515203	90.11473846	1.0
14	0.9119900465	0	0	1.18903017	-2.727199078	90.03186798	1.0
[LeftLeg]
10	0	-4.371409893	0	2.112438202	-3.234948635	88.88172913	1.0
11	0	-4.371409893	0	2.601861477	-3.479660273	88.87426758	1.0
12	0	-4.371409893	0	3.126204491	-3.730312824	88.83120728	1.0
13	0	-4.371409893	0	3.896475077	-3.769386053	88.79279327	1.0
14	0	-4.371409893	0	5.204767704	-3.510127544	88.80666351	1.0
[LeftFoot]
10	0	-3.918009996	0	-80.82374573	113.4365921	-40.26191711	1.0
11	0	-3.918009996	0	-81.44313049	113.3852539	-40.73499298	1.0
12	0	-3.918009996	0	-81.66108704	113.4360886	-40.753685	1.0
13	0	-3.918009996	0	-81.95262146	113.4540176	-40.73062134	1.0
14	0	-3.918009996	0	-83.15348816	113.3220291	-41.54084778	1.0
[LeftToeBase]
10	0	-0.5927900076	1.367989898	0	0	0	1.0
11	0	-0.5927900076	1.367989898	0	0	0	1.0
12	0	-0.5927900076	1.367989898	0	0	0	1.0
13	0	-0.5927900076	1.367989898	0	0	0	1.0
14	0	-0.5927900076	1.367989898	0	0	0	1.0
[RightUpLeg]
10	-0.9119900465	0	0	3.269121647	8.217569351	93.30066681	1.0
11	-0.9119900465	0	0	3.251083374	7.840152264	93.28379059	1.0
12	-0.9119900465	0	0	3.232903719	7.435819149	93.19412231	1.0
13	-0.9119900465	0	0	3.140094519	6.991994381	93.14243317	1.0
14	-0.9119900465	0	0	2.809571266	6.278590679	93.18675995	1.0
[RightLeg]
10	0	-4.371409893	0	1.509387493	3.465306282	90.0326767	1.0
11	0	-4.371409893	0	1.75025034	3.549544334	90.02426147	1.0
12	0	-4.371409893	0	1.881226182	3.538401127	90.03225708	1.0
13	0	-4.371409893	0	2.159191132	3.550892591	90.02213287	1.0
14	0	-4.371409893	0	2.76475668	3.584075451	89.84472656	1.0
[RightFoot]
10	0	-3.918009996	0	34.03015518	61.80624771	66.03376007	1.0
11	0	-3.918009996	0	33.82256699	61.71795654	65.95039368	1.0
12	0	-3.918009996	0	33.69116592	61.65058517	65.94593048	1.0
13	0	-3.918009996	0	33.38568878	61.54901886	65.82188416	1.0
14	0	-3.918009996	0	33.41147995	61.39805222	66.12526703	1.0
[RightToeBase]
10	0	-0.5927900076	1.367989898	0	0	0	1.0
11	0	-0.5927900076	1.367989898	0	0	0	1.0
12	0	-0.5927900076	1.367989898	0	0	0	1.0
13	0	-0.5927900076	1.367989898	0	0	0	1.0
14	0	-0.5927900076	1.367989898	0	0	0	1.0
[EndOfFile]
